<svg xmlns="http://www.w3.org/2000/svg" width="256" height="256" viewBox="0 0 256 256">
  <defs>
    <linearGradient id="ring" x1="0" y1="0" x2="1" y2="1">
      <stop offset="0" stop-color="#bc13fe"/>
      <stop offset="1" stop-color="#ffffff"/>
    </linearGradient>
    <filter id="glow" x="-30%" y="-30%" width="160%" height="160%">
      <feGaussianBlur stdDeviation="6" result="blur"/>
      <feMerge>
        <feMergeNode in="blur"/>
        <feMergeNode in="SourceGraphic"/>
      </feMerge>
    </filter>
  </defs>
  <circle cx="128" cy="128" r="96" stroke="url(#ring)" stroke-width="10" fill="none" filter="url(#glow)"/>
  <circle cx="128" cy="128" r="72" stroke="#bc13fe" stroke-opacity="0.35" stroke-width="6" fill="none"/>
  <g stroke="#bc13fe" stroke-width="10" fill="none" stroke-linecap="round" stroke-linejoin="round" filter="url(#glow)">
    <path d="M84 92h32c0 12 10 22 22 22s22-10 22-22h32v32c-12 0-22 10-22 22s10 22 22 22v32h-32c0-12-10-22-22-22s-22 10-22 22H84v-32c12 0 22-10 22-22s-10-22-22-22z"/>
  </g>
  <circle cx="160" cy="92" r="6" fill="#bc13fe"/>
  <circle cx="92" cy="160" r="6" fill="#bc13fe"/>
</svg>
